nColumns=19
nRows=73
DataType=double
version=3
OpenSimVersion=4.1
endheader
time	ground_force_calcn_r_vx	ground_force_calcn_r_vy	ground_force_calcn_r_vz	ground_force_calcn_r_px	ground_force_calcn_r_py	ground_force_calcn_r_pz	ground_force_calcn_r_mx	ground_force_calcn_r_my	ground_force_calcn_r_mz	ground_force_calcn_l_vx	ground_force_calcn_l_vy	ground_force_calcn_l_vz	ground_force_calcn_l_px	ground_force_calcn_l_py	ground_force_calcn_l_pz	ground_force_calcn_l_mx	ground_force_calcn_l_my	ground_force_calcn_l_mz
3.67	0	0	0	0	0	0	0	0	0	0	0	0	0	0	0	0	0	0
3.68	0	0	0	0	0	0	0	0	0	0	0	0	0	0	0	0	0	0
3.69	0	0	0	0	0	0	0	0	0	0	0	0	0	0	0	0	0	0
3.7	0	0	0	0	0	0	0	0	0	-12.6896	26.2094	-9.06612	1.26063	0	-0.327283	1.25302	-2.58802	0.895223
3.71	0	0	0	0	0	0	0	0	0	-39.5237	101.515	-16.3093	1.30361	0	-0.36233	1.66858	-4.2857	0.688533
3.72	0	0	0	0	0	0	0	0	0	-81.6393	301.67	-25.5554	1.3008	0	-0.372632	1.46843	-5.42606	0.459658
3.73	0	0	0	0	0	0	0	0	0	-112.979	671.17	-35.0567	1.2915	0	-0.372278	0.918611	-5.45713	0.285038
3.74	0	0	0	0	0	0	0	0	0	-129.742	1099.54	-47.7764	1.2795	0	-0.370191	0.494296	-4.18908	0.182021
3.75	0	0	0	0	0	0	0	0	0	-163.162	1376.77	-68.4861	1.26556	0	-0.370972	0.229791	-1.93899	0.0964537
3.76	0	0	0	0	0	0	0	0	0	-215.153	1508.55	-90.0104	1.24658	0	-0.374024	-0.108727	0.762339	-0.0454862
3.77	0	0	0	0	0	0	0	0	0	-253.123	1654.81	-100.055	1.21901	0	-0.375335	-0.532036	3.47824	-0.210305
3.78	0	0	0	0	0	0	0	0	0	-236.824	1834.59	-101.996	1.18662	0	-0.375258	-0.785252	6.08308	-0.338194
3.79	0	0	0	0	0	0	0	0	0	-185.916	1977.25	-104.743	1.15406	0	-0.375799	-0.805898	8.57086	-0.454034
3.8	0	0	0	0	0	0	0	0	0	-126.289	2045.11	-107.499	1.12097	0	-0.37616	-0.67432	10.9198	-0.57399
3.81	0	0	0	0	0	0	0	0	0	-57.4743	2036.6	-107.893	1.08647	0	-0.376333	-0.367846	13.0346	-0.690533
3.82	0	0	0	0	0	0	0	0	0	21.5431	1958.35	-105.353	1.04916	0	-0.376267	0.161822	14.7103	-0.791368
3.83	0	0	0	0	0	0	0	0	0	105.121	1821.3	-99.8721	1.00939	0	-0.375934	0.905988	15.697	-0.860754
3.84	0	0	0	0	0	0	0	0	0	180.518	1631.55	-91.9799	0.968782	0	-0.375282	1.74858	15.8039	-0.890958
3.85	0	0	0	0	0	0	0	0	0	233.87	1391.15	-83.7039	0.928699	0	-0.374211	2.51683	14.9711	-0.900793
3.86	0	0	0	0	0	0	0	0	0	263.355	1114.82	-77.0489	0.889634	0	-0.373569	3.12707	13.2374	-0.914878
3.87	0	0	0	0	0	0	0	0	0	262.833	833.491	-69.441	0.85185	0	-0.372924	3.40618	10.8016	-0.89992
3.88	0	0	0	0	0	0	0	0	0	231.475	576.367	-58.4731	0.815991	0	-0.370731	3.22616	8.03307	-0.814963
3.89	0	0	0	0	0	0	0	0	0	178.457	359.414	-46.4545	0.780017	0	-0.368994	2.64828	5.33365	-0.689379
3.9	0	0	0	0	0	0	0	0	0	116.287	194.277	-34.558	0.739681	0	-0.370582	1.83947	3.07315	-0.546653
3.91	0	0	0	0	0	0	0	0	0	59.7222	88.1948	-21.9054	0.705549	0	-0.368216	1.02726	1.51701	-0.376787
3.92	0	0	0	0	0	0	0	0	0	23.0763	33.5073	-11.0148	0.723187	0	-0.346614	0.446941	0.64897	-0.213335
3.93	0	0	0	0	0	0	0	0	0	6.84673	11.4208	-5.05258	0.908769	0	-0.31572	0.176	0.29358	-0.12988
3.94	0	0	0	0	0	0	0	0	0	0	0	0	0	0	0	0	0	0
3.95	0	0	0	0	0	0	0	0	0	0	0	0	0	0	0	0	0	0
3.96	0	0	0	0	0	0	0	0	0	0	0	0	0	0	0	0	0	0
3.97	0	0	0	0	0	0	0	0	0	0	0	0	0	0	0	0	0	0
3.98	0	0	0	0	0	0	0	0	0	0	0	0	0	0	0	0	0	0
3.99	0	0	0	0	0	0	0	0	0	0	0	0	0	0	0	0	0	0
4	0	0	0	0	0	0	0	0	0	0	0	0	0	0	0	0	0	0
4.01	-7.51287	36.5326	-10.3825	1.33878	0	-0.416566	-0.506469	2.46279	-0.699917	0	0	0	0	0	0	0	0	0
4.02	-22.3232	141.942	-15.0866	1.32775	0	-0.400572	-0.527031	3.35114	-0.356181	0	0	0	0	0	0	0	0	0
4.03	-46.4672	406.451	-14.989	1.32667	0	-0.39244	-0.447489	3.91422	-0.144348	0	0	0	0	0	0	0	0	0
4.04	-80.635	821.426	-7.22833	1.31571	0	-0.387795	-0.388666	3.95933	-0.034841	0	0	0	0	0	0	0	0	0
4.05	-131.876	1213.01	2.19242	1.30038	0	-0.386038	-0.366899	3.37477	0.00609965	0	0	0	0	0	0	0	0	0
4.06	-187.942	1424.69	4.70725	1.28303	0	-0.387037	-0.285248	2.16231	0.0071444	0	0	0	0	0	0	0	0	0
4.07	-227.855	1504.39	2.14333	1.26124	0	-0.388022	-0.0561876	0.370973	0.000528532	0	0	0	0	0	0	0	0	0
4.08	-249.619	1601.35	0.337261	1.23556	0	-0.388054	0.303119	-1.94456	-0.000409545	0	0	0	0	0	0	0	0	0
4.09	-242.462	1754.95	2.06935	1.20827	0	-0.388073	0.649617	-4.70194	-0.00554431	0	0	0	0	0	0	0	0	0
4.1	-210.316	1898.45	8.03287	1.17853	0	-0.388431	0.853361	-7.70299	-0.0325935	0	0	0	0	0	0	0	0	0
4.11	-162.277	1980.33	16.4403	1.14564	0	-0.389132	0.870913	-10.6281	-0.0882324	0	0	0	0	0	0	0	0	0
4.12	-97.7202	1995	25.126	1.10992	0	-0.390066	0.643043	-13.128	-0.16534	0	0	0	0	0	0	0	0	0
4.13	-18.2653	1952.99	33.4673	1.07346	0	-0.391343	0.139088	-14.8718	-0.25485	0	0	0	0	0	0	0	0	0
4.14	68.3761	1857.78	42.1278	1.03658	0	-0.392856	-0.573193	-15.5737	-0.353155	0	0	0	0	0	0	0	0	0
4.15	152.799	1704.33	50.2048	0.998728	0	-0.394539	-1.34676	-15.0218	-0.442501	0	0	0	0	0	0	0	0	0
4.16	220.881	1490.91	55.0479	0.959825	0	-0.396126	-1.94727	-13.1438	-0.4853	0	0	0	0	0	0	0	0	0
4.17	259.547	1227.77	53.9665	0.919765	0	-0.397282	-2.13603	-10.1043	-0.444134	0	0	0	0	0	0	0	0	0
4.18	264.691	938.33	45.5465	0.879606	0	-0.398263	-1.79117	-6.34969	-0.308214	0	0	0	0	0	0	0	0	0
4.19	241.609	657.321	32.3273	0.842652	0	-0.398672	-0.940611	-2.55903	-0.125854	0	0	0	0	0	0	0	0	0
4.2	196.488	418.076	19.7113	0.812149	0	-0.396266	0.242155	0.515244	0.0242926	0	0	0	0	0	0	0	0	0
4.21	139.621	236.842	10.5001	0.785442	0	-0.387842	1.40153	2.37745	0.105402	0	0	0	0	0	0	0	0	0
4.22	81.0154	114.334	4.0632	0.751609	0	-0.371244	2.15528	3.04166	0.108094	0	0	0	0	0	0	0	0	0
4.23	35.0611	44.9279	0.169637	0.69931	0	-0.334165	2.32982	2.98547	0.0112724	0	0	0	0	0	0	0	0	0
4.24	10.2734	14.7151	-1.04979	0.693382	0	-0.219866	1.9788	2.83432	-0.202204	0	0	0	0	0	0	0	0	0
4.25	0	0	0	0	0	0	0	0	0	0	0	0	0	0	0	0	0	0
4.26	0	0	0	0	0	0	0	0	0	0	0	0	0	0	0	0	0	0
4.27	0	0	0	0	0	0	0	0	0	0	0	0	0	0	0	0	0	0
4.28	0	0	0	0	0	0	0	0	0	0	0	0	0	0	0	0	0	0
4.29	0	0	0	0	0	0	0	0	0	0	0	0	0	0	0	0	0	0
4.3	0	0	0	0	0	0	0	0	0	0	0	0	0	0	0	0	0	0
4.31	0	0	0	0	0	0	0	0	0	0	0	0	0	0	0	0	0	0
4.32	0	0	0	0	0	0	0	0	0	0	0	0	0	0	0	0	0	0
4.33	0	0	0	0	0	0	0	0	0	-5.67213	18.8764	-5.36751	1.22445	0	-0.374005	-0.426702	1.42003	-0.403786
4.34	0	0	0	0	0	0	0	0	0	-21.9693	69.2594	-9.17991	1.26981	0	-0.42709	-0.469056	1.47873	-0.195996
4.35	0	0	0	0	0	0	0	0	0	-52.127	220.662	-10.3873	1.29511	0	-0.430828	-0.241229	1.02116	-0.0480694
4.36	0	0	0	0	0	0	0	0	0	-83.6169	535.118	-4.5719	1.29799	0	-0.424841	0.0386475	-0.24733	0.00211312
4.37	0	0	0	0	0	0	0	0	0	-114.563	949.368	7.14915	1.28849	0	-0.420801	0.270723	-2.24345	-0.0168942
4.38	0	0	0	0	0	0	0	0	0	-156.556	1254.92	17.7488	1.27413	0	-0.420969	0.562418	-4.50823	-0.0637618
4.39	0	0	0	0	0	0	0	0	0	-203.907	1383.76	25.402	1.25328	0	-0.423828	0.935981	-6.35176	-0.116601
